<svg aria-hidden="true" style="width:0;height:0;position:absolute;overflow:hidden" xmlns="http://www.w3.org/2000/svg"><defs><symbol id="icon-elevator" viewBox="0 0 33 32"><path d="M15.928.144c-.159.058-3.805 3.647-8.101 7.957C1.153 14.775 0 16 0 16.346c0 .317.259.663 1.11 1.542 1.759 1.816.951 2.306 8.692-5.42l6.559-6.559 6.559 6.559c7.741 7.741 6.933 7.236 8.706 5.405 1.052-1.081 1.124-1.196 1.038-1.629-.072-.375-1.614-1.989-7.769-8.144C20.686 3.877 17.054.316 16.837.201c-.432-.231-.505-.231-.908-.058z"/><path d="M7.957 20.656C1.845 26.782 0 28.699 0 28.973c0 .476 2.263 2.739 2.739 2.739.274 0 1.903-1.557 6.991-6.631l6.631-6.631 6.631 6.631c5.088 5.074 6.717 6.631 6.991 6.631.476 0 2.739-2.263 2.739-2.739 0-.274-1.845-2.191-7.957-8.317-7.02-7.02-8.014-7.971-8.404-7.971s-1.384.951-8.404 7.971z"/></symbol></defs></svg>