<svg aria-hidden="true" style="position: absolute; width: 0; height: 0; overflow: hidden;" version="1.1" xmlns="http://www.w3.org/2000/svg" xmlns:xlink="http://www.w3.org/1999/xlink">
<defs>
<symbol id="icon-elevator" viewBox="0 0 33 32">
<path d="M15.928 0.144c-0.159 0.058-3.805 3.647-8.101 7.957-6.674 6.674-7.827 7.899-7.827 8.245 0 0.317 0.259 0.663 1.11 1.542 1.759 1.816 0.951 2.306 8.692-5.42l6.559-6.559 6.559 6.559c7.741 7.741 6.933 7.236 8.706 5.405 1.052-1.081 1.124-1.196 1.038-1.629-0.072-0.375-1.614-1.989-7.769-8.144-4.209-4.223-7.841-7.784-8.058-7.899-0.432-0.231-0.505-0.231-0.908-0.058z"></path>
<path d="M7.957 20.656c-6.112 6.126-7.957 8.043-7.957 8.317 0 0.476 2.263 2.739 2.739 2.739 0.274 0 1.903-1.557 6.991-6.631l6.631-6.631 6.631 6.631c5.088 5.074 6.717 6.631 6.991 6.631 0.476 0 2.739-2.263 2.739-2.739 0-0.274-1.845-2.191-7.957-8.317-7.020-7.020-8.014-7.971-8.404-7.971s-1.384 0.951-8.404 7.971z"></path>
</symbol>
</defs>
</svg>
